<svg width="22" height="38" viewBox="0 0 22 38" fill="none" xmlns="http://www.w3.org/2000/svg">
<path d="M16.6964 8.2592H20.5159C21.3342 8.2592 22 7.65565 22 6.91376V1.34981C22 0.607925 21.3342 0.0043789 20.5159 0.0043789H15.271C15.2208 0.00244921 15.1334 0 15.011 0C14.0214 0 10.5801 0.177011 7.84989 2.45396C4.86982 4.93977 5.15497 7.91326 5.28039 8.64639V12.2712H1.4841C0.66583 12.2712 0 12.8748 0 13.6167V19.6008C0 20.3428 0.665749 20.9464 1.4841 20.9464H5.06074V36.6546C5.06074 37.3964 5.72649 38 6.54484 38H14.0249C14.8432 38 15.509 37.3964 15.509 36.6546V21.024H19.7456C20.4999 21.024 21.1338 20.5116 21.22 19.8323L21.9903 13.7707C22.0386 13.3899 21.9051 13.0074 21.6237 12.7213C21.3424 12.4353 20.9387 12.2713 20.5161 12.2713H15.5094V9.22856C15.5092 8.59986 15.6984 8.2592 16.6964 8.2592ZM14.6743 13.7853H20.3074L19.5799 19.5101H14.6741C14.213 19.5101 13.8391 19.8489 13.8391 20.267V36.486H6.7306V20.1894C6.7306 19.7713 6.3567 19.4324 5.89563 19.4324H1.66986V13.7851H6.11536C6.57644 13.7851 6.95033 13.4463 6.95033 13.0282V8.58487C6.95033 8.54145 6.94623 8.49803 6.93805 8.45521C6.85004 7.99691 6.53542 5.60781 8.98065 3.56813C11.266 1.66213 14.1743 1.51399 15.0111 1.51399C15.1284 1.51399 15.1983 1.51681 15.211 1.5174C15.2248 1.51799 15.2385 1.51829 15.2523 1.51829H20.3302V6.74536H16.6965C14.9074 6.74536 13.8393 7.67368 13.8393 9.22856V13.0283C13.8393 13.4464 14.2132 13.7853 14.6743 13.7853Z" fill="white"/>
<path d="M8.41163 25.5099C7.95055 25.5099 7.57666 25.8488 7.57666 26.2668V26.6454C7.57666 27.0634 7.95055 27.4023 8.41163 27.4023C8.87271 27.4023 9.2466 27.0634 9.2466 26.6454V26.2668C9.2466 25.8488 8.87263 25.5099 8.41163 25.5099Z" fill="white"/>
<path d="M8.41163 28.3107C7.95055 28.3107 7.57666 28.6495 7.57666 29.0676V34.8206C7.57666 35.2387 7.95055 35.5776 8.41163 35.5776C8.87271 35.5776 9.2466 35.2387 9.2466 34.8206V29.0676C9.2466 28.6495 8.87263 28.3107 8.41163 28.3107Z" fill="white"/>
</svg>
